<?xml version="1.0" standalone="no"?>
<!DOCTYPE svg PUBLIC "-//W3C//DTD SVG 20010904//EN"
 "http://www.w3.org/TR/2001/REC-SVG-20010904/DTD/svg10.dtd">
<svg version="1.0" xmlns="http://www.w3.org/2000/svg"
 width="156.000000pt" height="162.000000pt" viewBox="0 0 156.000000 162.000000"
 preserveAspectRatio="xMidYMid meet">

<g transform="translate(0.000000,162.000000) scale(0.100000,-0.100000)"
fill="#000000" stroke="none">
<path d="M847 1413 c-14 -14 -6 -23 21 -23 39 -1 97 -32 97 -52 0 -10 -15 -29
-34 -43 -19 -14 -31 -25 -27 -25 19 0 72 32 83 49 16 25 -8 53 -68 81 -47 21
-62 24 -72 13z"/>
<path d="M1005 1131 c-37 -9 -135 -48 -239 -96 -130 -59 -306 -104 -306 -77 0
4 6 14 13 21 10 10 9 11 -3 6 -8 -3 -23 -17 -33 -31 -17 -22 -17 -25 -1 -31
33 -12 245 54 379 120 28 13 73 32 100 42 28 10 54 22 60 27 5 4 25 8 44 8
l34 0 -66 -67 c-161 -167 -196 -223 -176 -285 7 -21 19 -45 28 -55 17 -18 41
-87 41 -116 0 -12 -24 -16 -142 -19 -79 -3 -158 -11 -176 -18 -35 -13 -62 -54
-62 -92 1 -17 5 -13 15 16 7 21 20 43 27 47 43 28 191 46 282 35 55 -7 56 -8
50 -34 -13 -57 -44 -113 -89 -161 -53 -57 -87 -74 -141 -69 -38 3 -52 16 -112
104 -7 10 -3 0 9 -23 58 -110 127 -127 223 -55 46 35 62 57 99 130 l43 89 60
-17 c68 -19 176 -72 204 -100 11 -11 17 -26 14 -35 -4 -10 0 -15 10 -15 9 0
16 8 16 18 0 43 -76 93 -217 142 -87 30 -93 34 -93 60 0 15 -17 61 -37 101
-22 44 -37 89 -37 110 -1 42 29 82 161 220 46 47 83 91 83 98 0 12 -19 13 -65
2z"/>
</g>
</svg>
