<svg width="208" height="216" xmlns="http://www.w3.org/2000/svg" xmlns:xlink="http://www.w3.org/1999/xlink" overflow="hidden"><defs><clipPath id="clip0"><rect x="536" y="252" width="208" height="216"/></clipPath></defs><g clip-path="url(#clip0)" transform="translate(-536 -252)"><path d="M112.933 188.4C111.067 186.533 112.133 185.333 115.733 185.333 120.933 185.2 128.667 181.067 128.667 178.4 128.667 177.067 126.667 174.533 124.133 172.667 121.6 170.8 120 169.333 120.533 169.333 123.067 169.333 130.133 173.6 131.6 175.867 133.733 179.2 130.533 182.933 122.533 186.667 116.267 189.467 114.267 189.867 112.933 188.4Z" fill="#FFFFFF" fill-rule="nonzero" fill-opacity="1" transform="matrix(1 0 0 -1 536 468)"/><path d="M134 150.8C129.067 149.6 116 144.4 102.133 138 84.8 130.133 61.3333 124.133 61.3333 127.733 61.3333 128.267 62.1333 129.6 63.0667 130.533 64.4 131.867 64.2667 132 62.6667 131.333 61.6 130.933 59.6 129.067 58.2667 127.2 56 124.267 56 123.867 58.1333 123.067 62.5333 121.467 90.8 130.267 108.667 139.067 112.4 140.8 118.4 143.333 122 144.667 125.733 146 129.2 147.6 130 148.267 130.667 148.8 133.333 149.333 135.867 149.333L140.4 149.333 131.6 140.4C110.133 118.133 105.467 110.667 108.133 102.4 109.067 99.6 110.667 96.4 111.867 95.0667 114.133 92.6667 117.333 83.4667 117.333 79.6 117.333 78 114.133 77.4667 98.4 77.0667 87.8667 76.6667 77.3333 75.6 74.9333 74.6667 70.2667 72.9333 66.6667 67.4667 66.6667 62.4 66.8 60.1333 67.3333 60.6667 68.6667 64.5333 69.6 67.3333 71.3333 70.2667 72.2667 70.8 78 74.5333 97.7333 76.9333 109.867 75.4667 117.2 74.5333 117.333 74.4 116.533 70.9333 114.8 63.3333 110.667 55.8667 104.667 49.4667 97.6 41.8667 93.0667 39.6 85.8667 40.2667 80.8 40.6667 78.9333 42.4 70.9333 54.1333 70 55.4667 70.5333 54.1333 72.1333 51.0667 79.8667 36.4 89.0667 34.1333 101.867 43.7333 108 48.4 110.133 51.3333 115.067 61.0667L120.8 72.9333 128.8 70.6667C137.867 68.1333 152.267 61.0667 156 57.3333 157.467 55.8667 158.267 53.8667 157.867 52.6667 157.333 51.3333 157.867 50.6667 159.2 50.6667 160.4 50.6667 161.333 51.7333 161.333 53.0667 161.333 58.8 151.2 65.4667 132.4 72 120.8 76 120 76.5333 120 80 120 82 117.733 88.1333 115.067 93.4667 112.133 99.3333 110.133 105.333 110.133 108.133 110 113.733 114 119.067 131.6 137.467 137.733 143.733 142.667 149.6 142.667 150.533 142.667 152.133 140.133 152.267 134 150.8Z" fill="#FFFFFF" fill-rule="nonzero" fill-opacity="1" transform="matrix(1 0 0 -1 536 468)"/></g></svg>